<?xml version="1.0" encoding="UTF-8" standalone="no"?>
<!DOCTYPE svg PUBLIC "-//W3C//DTD SVG 1.1//EN"
 "http://www.w3.org/Graphics/SVG/1.1/DTD/svg11.dtd">
<!-- Generated by graphviz version 2.43.0 (0)
 -->
<!-- Title: %3 Pages: 1 -->
<svg width="1956pt" height="165pt"
 viewBox="0.00 0.00 1956.00 164.74" xmlns="http://www.w3.org/2000/svg" xmlns:xlink="http://www.w3.org/1999/xlink">
<g id="graph0" class="graph" transform="scale(1 1) rotate(0) translate(36 128.74)">
<title>%3</title>
<polygon fill="dimgray" stroke="transparent" points="-36,36 -36,-128.74 1920,-128.74 1920,36 -36,36"/>
<text text-anchor="middle" x="942" y="-77.54" font-family="Helvetica,sans-Serif" font-size="14.00">Sweep&#39;s Plan &amp; Progress</text>
<!-- start -->
<g id="node1" class="node">
<title>start</title>
</g>
<!-- 10076576&#45;0f0e&#45;4528&#45;a412&#45;58951b3d87f1 -->
<g id="node3" class="node">
<title>10076576&#45;0f0e&#45;4528&#45;a412&#45;58951b3d87f1</title>
<ellipse fill="#0ee832" stroke="black" cx="225.5" cy="-26.87" rx="173.48" ry="26.74"/>
<text text-anchor="middle" x="225.5" y="-30.67" font-family="Helvetica,sans-Serif" font-size="14.00">✓ Modify</text>
<text text-anchor="middle" x="225.5" y="-15.67" font-family="Helvetica,sans-Serif" font-size="14.00">Runtime/Example/ApiExample.cs</text>
</g>
<!-- start&#45;&gt;10076576&#45;0f0e&#45;4528&#45;a412&#45;58951b3d87f1 -->
<g id="edge4" class="edge">
<title>start&#45;&gt;10076576&#45;0f0e&#45;4528&#45;a412&#45;58951b3d87f1</title>
<path fill="none" stroke="black" d="M1.15,-26.87C4.46,-26.87 20.24,-26.87 42.02,-26.87"/>
<polygon fill="black" stroke="black" points="42.06,-30.37 52.06,-26.87 42.06,-23.37 42.06,-30.37"/>
<text text-anchor="middle" x="26.63" y="-33.67" font-family="Helvetica,sans-Serif" font-size="14.00">Start</text>
</g>
<!-- end -->
<g id="node2" class="node">
<title>end</title>
</g>
<!-- f58bd5d5&#45;2cee&#45;47ec&#45;9271&#45;bb0cdde7396a -->
<g id="node4" class="node">
<title>f58bd5d5&#45;2cee&#45;47ec&#45;9271&#45;bb0cdde7396a</title>
<ellipse fill="#0ee832" stroke="black" cx="603.5" cy="-26.87" rx="169.91" ry="26.74"/>
<text text-anchor="middle" x="603.5" y="-30.67" font-family="Helvetica,sans-Serif" font-size="14.00">✓ Modify</text>
<text text-anchor="middle" x="603.5" y="-15.67" font-family="Helvetica,sans-Serif" font-size="14.00">Runtime/Scripts/DuckDuckGo.cs</text>
</g>
<!-- 10076576&#45;0f0e&#45;4528&#45;a412&#45;58951b3d87f1&#45;&gt;f58bd5d5&#45;2cee&#45;47ec&#45;9271&#45;bb0cdde7396a -->
<g id="edge1" class="edge">
<title>10076576&#45;0f0e&#45;4528&#45;a412&#45;58951b3d87f1&#45;&gt;f58bd5d5&#45;2cee&#45;47ec&#45;9271&#45;bb0cdde7396a</title>
<path fill="none" stroke="black" d="M399,-26.87C407.23,-26.87 415.47,-26.87 423.7,-26.87"/>
<polygon fill="black" stroke="black" points="423.75,-30.37 433.75,-26.87 423.75,-23.37 423.75,-30.37"/>
</g>
<!-- f3486392&#45;6df5&#45;41a3&#45;af73&#45;e69171fe95ab -->
<g id="node5" class="node">
<title>f3486392&#45;6df5&#45;41a3&#45;af73&#45;e69171fe95ab</title>
<ellipse fill="#0ee832" stroke="black" cx="1047.5" cy="-26.87" rx="239" ry="26.74"/>
<text text-anchor="middle" x="1047.5" y="-30.67" font-family="Helvetica,sans-Serif" font-size="14.00">✓ Modify</text>
<text text-anchor="middle" x="1047.5" y="-15.67" font-family="Helvetica,sans-Serif" font-size="14.00">Runtime/Scripts/Models/ImageSearchResult.cs</text>
</g>
<!-- f58bd5d5&#45;2cee&#45;47ec&#45;9271&#45;bb0cdde7396a&#45;&gt;f3486392&#45;6df5&#45;41a3&#45;af73&#45;e69171fe95ab -->
<g id="edge2" class="edge">
<title>f58bd5d5&#45;2cee&#45;47ec&#45;9271&#45;bb0cdde7396a&#45;&gt;f3486392&#45;6df5&#45;41a3&#45;af73&#45;e69171fe95ab</title>
<path fill="none" stroke="black" d="M773.47,-26.87C781.71,-26.87 789.96,-26.87 798.2,-26.87"/>
<polygon fill="black" stroke="black" points="798.26,-30.37 808.26,-26.87 798.26,-23.37 798.26,-30.37"/>
</g>
<!-- 5b3b7aab&#45;a0a5&#45;463a&#45;94f5&#45;f212ad7eb223 -->
<g id="node6" class="node">
<title>5b3b7aab&#45;a0a5&#45;463a&#45;94f5&#45;f212ad7eb223</title>
<ellipse fill="yellow" stroke="black" cx="1573.5" cy="-26.87" rx="251.96" ry="26.74"/>
<text text-anchor="middle" x="1573.5" y="-30.67" font-family="Helvetica,sans-Serif" font-size="14.00">⋯ Modify</text>
<text text-anchor="middle" x="1573.5" y="-15.67" font-family="Helvetica,sans-Serif" font-size="14.00">Runtime/Scripts/Models/ImageSummaryModel.cs</text>
</g>
<!-- f3486392&#45;6df5&#45;41a3&#45;af73&#45;e69171fe95ab&#45;&gt;5b3b7aab&#45;a0a5&#45;463a&#45;94f5&#45;f212ad7eb223 -->
<g id="edge3" class="edge">
<title>f3486392&#45;6df5&#45;41a3&#45;af73&#45;e69171fe95ab&#45;&gt;5b3b7aab&#45;a0a5&#45;463a&#45;94f5&#45;f212ad7eb223</title>
<path fill="none" stroke="black" d="M1286.61,-26.87C1294.91,-26.87 1303.21,-26.87 1311.51,-26.87"/>
<polygon fill="black" stroke="black" points="1311.63,-30.37 1321.63,-26.87 1311.63,-23.37 1311.63,-30.37"/>
</g>
<!-- 5b3b7aab&#45;a0a5&#45;463a&#45;94f5&#45;f212ad7eb223&#45;&gt;end -->
<g id="edge5" class="edge">
<title>5b3b7aab&#45;a0a5&#45;463a&#45;94f5&#45;f212ad7eb223&#45;&gt;end</title>
<path fill="none" stroke="black" d="M1825.56,-26.87C1845.93,-26.87 1862.57,-26.87 1872.7,-26.87"/>
<polygon fill="black" stroke="black" points="1872.89,-30.37 1882.89,-26.87 1872.89,-23.37 1872.89,-30.37"/>
<text text-anchor="middle" x="1854.12" y="-33.67" font-family="Helvetica,sans-Serif" font-size="14.00">Finish</text>
</g>
</g>
</svg>
